<?xml version="1.0" encoding="utf-8"?>
<!-- Designed by Vexels.com - 2016 All Rights Reserved - https://vexels.com/terms-and-conditions/  -->

<svg version="1.0" id="Capa_1" xmlns="http://www.w3.org/2000/svg" xmlns:xlink="http://www.w3.org/1999/xlink" x="0px" y="0px"
	 width="1200px" height="1200px" viewBox="0 0 1200 1200" enable-background="new 0 0 1200 1200" xml:space="preserve">
<g>
	<g>
		<g>
			<g>
				<path fill="#414042" d="M661.107,241.003c-4.558-47.877-42.518-87.816-84.438-107.596
					c-47.319-22.328-103.19-11.043-149.475,8.593c-42.929,18.212-84.026,48.265-109.617,87.695
					c-6.845,10.546-12.674,21.682-17.891,33.111c-3.991,8.743-7.559,17.353-9.57,26.762c-1.889,8.834-3.177,17.785-5.104,26.613
					c-1.284,5.883-3.126,15.33-7.361,19.24c-7.04,6.5,4.077,11.798,9.48,6.809c6.698-6.185,9.243-14.842,11.41-23.439
					c2.508-9.95,3.863-20.153,5.941-30.193c2.31-11.156,7.521-21.572,12.457-31.769c6.272-12.955,13.661-25.3,22.494-36.673
					c16.353-21.054,38.105-38.516,60.787-52.313c23.143-14.078,48.414-24.447,74.792-30.592c18.989-4.423,39.519-7.077,58.958-4.54
					c18.693,2.439,36.499,10.193,52.215,20.395c31.347,20.35,57.149,53.635,60.771,91.69
					C647.599,251.55,661.778,248.053,661.107,241.003L661.107,241.003z"/>
			</g>
		</g>
		<g>
			<g>
				<path fill="#414042" d="M287.99,322.671c-72.365,4.672-157.076-1.438-215.919,48.924
					c-33.635,28.787-49.232,72.309-57.42,114.591c-9.272,47.88-2.79,97.719,18.289,141.654
					c21.473,44.758,56.35,80.314,96.871,108.265c42.787,29.515,91.914,58.834,144.893,63.032c6.978,0.553,14.035,0.44,21.006-0.151
					c2.839-0.24,7.341-1.945,7.936-5.2c0.618-3.381-4.042-3.918-6.296-3.727c-25.882,2.193-51.791-5.349-75.431-15.276
					c-24.996-10.497-48.496-24.421-71.055-39.369c-41.549-27.531-78.06-61.514-101.225-106.258
					C27.093,585.61,19.94,535.977,28.323,487.757c7.388-42.498,23.087-85.914,56.933-114.414
					c25.247-21.259,58.372-29.994,90.406-34.36c36.665-4.997,73.812-5.004,110.687-7.385c2.833-0.183,7.348-1.985,7.936-5.2
					C294.909,322.986,290.237,322.526,287.99,322.671L287.99,322.671z"/>
			</g>
		</g>
		<g>
			<g>
				<path fill="#414042" d="M969.93,884.553c22.409,10.17,47.855,7.296,70.533-0.523c23.251-8.017,45.036-21.125,63.009-37.921
					c18.76-17.532,39.205-34.18,53.967-55.413c15.277-21.973,17.601-50.684,20.086-76.53c2.24-23.298,3.919-45.962,0.403-69.246
					c-3.159-20.92-9.967-41.194-19.581-60.013c-19.124-37.434-49.421-68.116-85.089-90.047
					c-56.928-35.003-127.378-46.215-192.271-30.313c0.732,2.732,1.464,5.464,2.196,8.195c17.111-4.592,23.777-20.002,25.186-36.359
					c1.476-17.137-1.331-34.895-5.523-51.482c-5.015-19.847-14.228-38.887-24.314-56.601
					c-12.383-21.747-28.145-41.758-47.482-57.731c-24.322-20.091-52.701-29.904-83.512-34.662
					c-15.756-2.433-31.749-3.32-47.671-2.486c-14.369,0.753-29.506,3.311-42.33,10.137c-1.971,1.049-5.87,3.689-3.591,6.365
					c2.078,2.441,6.982,1.855,9.471,0.53c18.808-10.012,42.561-9.218,63.163-7.447c22.264,1.914,45.112,6.476,65.246,16.446
					c45.036,22.3,74.772,68.453,92.081,114.133c5.959,15.726,9.221,32.63,10.319,49.385c0.601,9.16,0.21,18.595-2.239,27.48
					c-0.971,3.523-2.549,6.792-4.678,9.76c-1.82,2.537-4.266,3.787-6.322,4.339c-2.338,0.627-6.831,2.811-5.978,5.994
					c0.862,3.217,5.822,2.778,8.174,2.202c83.342-20.424,175.247,9.867,231.959,73.809c28.164,31.755,45.981,71.517,50.077,113.813
					c2.368,24.451-0.917,49.36-3.88,73.627c-1.67,13.678-4.013,27.587-9.019,40.487c-4.619,11.902-12.582,21.891-21.18,31.166
					c-10.75,11.596-22.758,21.945-34.321,32.703c-10.348,9.627-20.911,18.24-33.106,25.481
					c-23.646,14.04-55.972,25.432-82.671,13.315c-3.223-1.463-7.166-0.819-10.075,1.124
					C969.048,879.547,966.712,883.093,969.93,884.553L969.93,884.553z"/>
			</g>
		</g>
		<g>
			<g>
				<path fill="#414042" d="M957.94,854.157c1.197,30.671,9.697,62.503,2.407,92.951c-5.628,23.507-18.37,44.809-35.087,62.102
					c-34.812,36.013-89.213,55.442-138.911,50.528c-38.145-3.771-72.735-23.554-102.739-46.305
					c-23.637-17.923-57.279-47.86-45.14-81.188c1.182-3.246-4.518-3.801-6.265-3.613c-3.247,0.349-6.776,1.903-7.953,5.136
					c-7.64,20.977,2.67,41.524,16.062,57.529c13.986,16.715,32.081,30.262,50.135,42.283c22.503,14.983,47.351,26.895,73.92,32.441
					c26.164,5.461,53.034,3.894,78.879-2.461c42.975-10.566,82.959-33.804,109.144-70c12.574-17.381,21.801-38.463,24.172-59.871
					c3.078-27.794-3.391-55.605-4.473-83.324C971.888,845.151,957.707,848.184,957.94,854.157L957.94,854.157z"/>
			</g>
		</g>
		<g>
			<g>
				<path fill="#414042" d="M286.839,794.019c-21.223,27.404-11.546,63.45,2.986,91.505c18.059,34.864,45.084,65.352,74.361,91.221
					c12.254,10.828,25.289,21.049,39.351,29.438c16.303,9.726,35.153,14.208,53.976,15.467
					c44.798,2.998,90.041-14.231,125.077-41.427c21.169-16.432,38.521-37.775,49.102-62.446c1.342-3.128-4.7-3.508-6.19-3.335
					c-3.254,0.378-6.652,1.846-7.995,4.978c-31.284,72.948-135.63,122.124-207.041,77.044
					c-30.92-19.519-57.979-46.736-80.505-75.327c-12.018-15.254-22.829-31.642-30.816-49.382
					c-6.683-14.845-11.579-31.364-10.355-47.793c0.805-10.813,4.666-20.834,11.295-29.395c2.147-2.772-1.809-4.413-3.927-4.502
					C292.713,789.922,288.979,791.256,286.839,794.019L286.839,794.019z"/>
			</g>
		</g>
	</g>
	<g>
		<g>
			<g>
				<path fill="#414042" d="M668.408,230.208c-4.246-47.376-42.129-87.365-84.094-106.049
					c-47.495-21.146-103.398-9.079-149.261,10.897c-42.757,18.622-83.352,48.494-109.067,87.842
					c-6.576,10.062-12.122,20.775-17.159,31.676c-4.002,8.663-7.762,17.234-9.803,26.574c-1.955,8.946-3.312,18.01-5.353,26.939
					c-1.505,6.583-3.159,15.345-8.361,20.147c-2.249,2.076-1.496,4.695,1.445,5.391c3.345,0.792,7.492-0.36,10.007-2.681
					c6.389-5.897,8.815-15.123,10.812-23.273c2.455-10.018,3.846-20.261,6.121-30.318c2.62-11.584,8.298-22.509,13.617-33.048
					c6.446-12.774,14.046-24.95,22.966-36.144c16.713-20.975,38.858-38.126,61.705-51.899c23.097-13.923,48.44-24.021,74.746-29.915
					c18.721-4.195,39.097-6.696,58.164-3.579c18.348,2.999,35.584,10.829,50.996,21.054c30.365,20.146,55.05,53.146,58.369,90.179
					C654.709,239.056,668.919,235.91,668.408,230.208L668.408,230.208z"/>
			</g>
		</g>
		<g>
			<g>
				<path fill="#414042" d="M296.728,313.648c-72.57,5.119-157.695-0.435-216.23,50.792
					c-33.565,29.375-49.369,73.564-57.313,116.289c-8.913,47.944-1.902,97.683,19.878,141.277
					c22.266,44.568,57.848,78.761,98.745,106.306c22.286,15.01,45.515,28.78,70.104,39.683
					c23.915,10.604,49.673,18.538,76.014,18.936c4.53,0.068,9.077-0.155,13.587-0.562c2.781-0.251,7.329-1.89,7.967-5.082
					c0.664-3.325-4.117-3.711-6.24-3.519c-25.94,2.344-51.913-5.165-75.629-15.064c-24.937-10.408-48.38-24.255-70.882-39.126
					c-41.491-27.421-77.681-61.662-100.151-106.637c-22.035-44.105-27.908-94.149-18.302-142.362
					c8.309-41.7,24.501-84.717,59.04-111.699c25.559-19.967,57.399-28.465,89.014-32.831c35.999-4.97,72.466-5.244,108.67-7.798
					c2.774-0.196,7.337-1.927,7.967-5.082C303.639,313.814,298.846,313.499,296.728,313.648L296.728,313.648z"/>
			</g>
		</g>
		<g>
			<g>
				<path fill="#414042" d="M973.174,868.349c22.24,9.968,48.127,6.24,70.345-1.787c23.105-8.346,44.584-21.612,62.376-38.552
					c18.73-17.833,39.259-34.211,53.894-55.808c14.928-22.03,17.123-50.958,19.738-76.664c2.359-23.19,3.932-45.685,0.367-68.865
					c-3.211-20.872-10.166-40.893-19.765-59.659c-19.005-37.157-49.928-67.6-85.61-88.832
					c-56.336-33.521-125.322-43.804-188.908-27.889c0.828,3.092,1.657,6.184,2.486,9.276c35.657-9.762,26.377-62.326,19.755-88.609
					c-5.048-20.036-14.41-39.362-24.685-57.187c-12.451-21.6-28.361-41.209-47.75-56.948
					c-24.026-19.502-52.769-28.702-83.014-32.967c-28.059-3.957-61.978-5.493-87.768,8.327c-2.319,1.243-5.64,4.156-3.413,7.03
					c2.077,2.681,6.907,2.335,9.572,0.907c18.911-10.134,42.912-9.522,63.674-7.794c22.282,1.855,45.261,6.246,65.357,16.39
					c44.656,22.541,73.771,68.755,90.364,114.455c5.476,15.081,8.384,31.681,9.035,47.675c0.36,8.842-0.147,17.881-2.673,26.403
					c-0.938,3.166-2.55,6.338-4.639,8.892c-2.031,2.483-3.911,3.495-6.301,4.15c-2.646,0.724-6.738,3.157-5.833,6.534
					c0.91,3.397,5.658,3.408,8.319,2.742c82.878-20.743,174.927,8.322,231.16,72.601c27.838,31.821,44.965,71.631,48.285,113.815
					c1.927,24.484-1.664,49.724-4.996,73.944c-1.861,13.526-4.565,27.072-10.011,39.651c-5.041,11.643-13.645,21.392-22.322,30.465
					c-10.821,11.316-22.739,21.505-34.129,32.227c-10.181,9.584-21.232,17.977-33.436,24.849
					c-23.896,13.457-54.684,23.883-81.224,11.988C975.766,856.573,965.014,864.692,973.174,868.349L973.174,868.349z"/>
			</g>
		</g>
		<g>
			<g>
				<path fill="#414042" d="M959.975,837.296c1.007,30.508,9.301,62.235,1.879,92.471c-5.755,23.445-18.467,44.884-35.204,62.161
					c-34.787,35.911-89.264,56.393-139.081,51.048c-37.733-4.048-71.909-23.159-101.625-45.808
					c-23.465-17.885-56.479-47.415-44.237-80.52c1.654-4.472-12.443-2.679-14.125,1.87c-7.757,20.976,2.509,41.286,15.999,57.235
					c14.148,16.727,32.405,30.086,50.651,42.001c22.569,14.739,47.416,26.093,74.006,31.091c26.409,4.964,53.586,2.596,79.409-4.32
					c42.016-11.253,81.255-34.357,106.782-70.171c12.538-17.591,21.601-38.583,23.801-60.155
					c2.747-26.932-3.215-53.826-4.102-80.696C973.987,829.258,959.8,832.012,959.975,837.296L959.975,837.296z"/>
			</g>
		</g>
		<g>
			<g>
				<path fill="#414042" d="M292.847,782.09c-21.425,27.538-11.885,63.23,2.885,91.484c18.095,34.614,45.337,64.94,74.677,90.414
					c12.041,10.454,24.847,20.323,38.768,28.159c16.88,9.502,36.607,13.382,55.832,13.811
					c44.845,1.001,90.065-16.665,124.504-44.951c19.322-15.87,35.505-35.768,45.502-58.783c1.435-3.303-12.299-1.82-14.04,2.188
					c-31.694,72.967-135.098,123.641-207.054,77.472c-31.029-19.91-58.279-47.221-80.731-76.284
					c-11.853-15.343-22.369-31.906-29.924-49.803c-6.302-14.929-10.587-31.614-8.44-47.894c1.264-9.586,5.059-18.676,10.989-26.299
					c1.986-2.553-1.699-3.167-3.551-3.099C299.307,778.614,294.795,779.586,292.847,782.09L292.847,782.09z"/>
			</g>
		</g>
	</g>
</g>
</svg>
